<?xml version="1.0" encoding="UTF-8"?>
<svg id="Layer_2" data-name="Layer 2" xmlns="http://www.w3.org/2000/svg" viewBox="0 0 162.81 47.54">
  <defs>
    <style>
      .cls-1, .cls-2 {
        stroke-width: 0px;
      }

      .cls-2 {
        fill: #068fff;
      }
    </style>
  </defs>
  <g id="Layer_1-2" data-name="Layer 1">
    <g>
      <path class="cls-2" d="m43.6,38.76l-10.11-7.83c-.35-.27-.86-.02-.86.42v2.54H14.28v10.57h18.35v2.54c0,.44.51.69.86.42l10.11-7.83c.28-.21.28-.63,0-.84Z"/>
      <g>
        <path class="cls-1" d="m10.73,30.34V.7H.03v29.51s-1.3,14.25,14.25,14.25v-10.57s-3.55-.32-3.55-3.55Z"/>
        <path class="cls-1" d="m22.27.7v30.77h8.66v-3.09c0-.54.77-.72,1.2-.72h.8V.7h-10.66Z"/>
      </g>
    </g>
    <g>
      <path class="cls-1" d="m37.7,27.52V8.23h5.44v3.27h.22c.34-1,.94-1.87,1.8-2.61.86-.73,2.05-1.1,3.56-1.1,1.98,0,3.48.66,4.5,1.98,1.02,1.32,1.52,3.21,1.52,5.66v12.09h-5.44v-11.65c0-1.25-.2-2.17-.59-2.77-.39-.6-1.09-.9-2.09-.9-.44,0-.87.05-1.29.17-.42.11-.79.29-1.12.53-.33.25-.59.55-.79.9-.2.36-.29.77-.29,1.23v12.49h-5.44Z"/>
      <path class="cls-1" d="m62.32,6.17c-1.1,0-1.9-.25-2.41-.75-.5-.5-.75-1.14-.75-1.93v-.81c0-.78.25-1.43.75-1.93s1.3-.75,2.41-.75,1.9.25,2.41.75c.5.5.75,1.15.75,1.93v.81c0,.78-.25,1.43-.75,1.93-.5.5-1.3.75-2.41.75Zm-2.72,2.06h5.44v19.29h-5.44V8.23Z"/>
      <path class="cls-1" d="m81.09,6.83v20.69h-5.58V6.83h-6.94V1.87h19.47v4.96h-6.94Z"/>
      <path class="cls-1" d="m89.91,27.52V8.23h5.44v4.19h.18c.1-.54.27-1.06.51-1.56.24-.5.57-.95.97-1.34.4-.39.89-.7,1.45-.94.56-.23,1.22-.35,1.98-.35h.96v5.07h-1.36c-1.59,0-2.77.21-3.55.62-.77.42-1.16,1.19-1.16,2.31v11.28h-5.44Z"/>
      <path class="cls-1" d="m118.5,27.52c-.98,0-1.79-.31-2.44-.92-.65-.61-1.06-1.43-1.23-2.46h-.22c-.29,1.25-.94,2.2-1.95,2.85-1,.65-2.24.97-3.71.97-1.94,0-3.42-.51-4.45-1.54-1.03-1.03-1.54-2.38-1.54-4.07,0-2.03.74-3.53,2.22-4.52,1.48-.99,3.5-1.48,6.04-1.48h3.05v-1.21c0-.93-.25-1.67-.73-2.22-.49-.55-1.31-.83-2.46-.83-1.08,0-1.94.23-2.57.7-.64.47-1.16.99-1.58,1.58l-3.23-2.88c.78-1.16,1.77-2.06,2.96-2.72,1.19-.65,2.8-.98,4.83-.98,2.74,0,4.8.6,6.17,1.8,1.37,1.2,2.06,2.95,2.06,5.25v8.45h1.8v4.23h-3.01Zm-7.53-3.34c.91,0,1.68-.19,2.33-.58.65-.39.97-1.02.97-1.9v-2.26h-2.65c-2.13,0-3.2.72-3.2,2.15v.55c0,.71.22,1.22.66,1.55.44.33,1.07.49,1.87.49Z"/>
      <path class="cls-1" d="m132.94,27.96c-1.45,0-2.73-.24-3.86-.72s-2.07-1.15-2.83-2.02c-.76-.87-1.34-1.93-1.73-3.18-.39-1.25-.59-2.65-.59-4.19s.2-2.93.59-4.17.97-2.3,1.73-3.18c.76-.88,1.7-1.56,2.83-2.02,1.13-.47,2.41-.7,3.86-.7,1.96,0,3.59.44,4.9,1.32s2.25,2.12,2.81,3.71l-4.41,1.91c-.17-.73-.53-1.36-1.07-1.87-.54-.51-1.29-.77-2.24-.77-1.1,0-1.94.36-2.5,1.08-.56.72-.85,1.7-.85,2.92v3.6c0,1.22.28,2.19.85,2.9s1.4,1.07,2.5,1.07c.98,0,1.76-.26,2.33-.79s1-1.22,1.27-2.08l4.23,1.84c-.64,1.84-1.62,3.18-2.96,4.04s-2.96,1.29-4.87,1.29Z"/>
      <path class="cls-1" d="m144.14.33h5.44v16.06h.22l2.39-3.56,3.86-4.59h6.03l-6.43,7.39,7.17,11.9h-6.47l-4.34-8.16-2.42,2.72v5.44h-5.44V.33Z"/>
    </g>
  </g>
</svg>